<svg version="1.1" id="Layer_1" xmlns="http://www.w3.org/2000/svg" xmlns:xlink="http://www.w3.org/1999/xlink" x="0px" y="0px"
	 width="164" height="50" viewBox="0 0 683 208" enable-background="new 0 0 683 208" xml:space="preserve">
<path fill="#FFFFFF" opacity="1.000000" stroke="none" 
	d="
M180.000000,1.000000 
	C347.940491,1.000000 515.880981,1.000000 683.910767,1.000000 
	C683.910767,70.249176 683.910767,139.498505 683.910767,209.000000 
	C516.643433,209.000000 349.286713,209.000000 181.610870,208.665176 
	C189.269897,205.112289 196.253250,201.076126 201.564941,193.602417 
	C207.038528,185.900909 210.835907,177.881622 210.890533,168.681671 
	C211.140503,126.584801 211.112671,84.485077 210.910690,42.387691 
	C210.867538,33.394234 207.394989,25.281849 202.356827,17.756884 
	C196.816727,9.482264 188.491989,5.192714 180.000000,1.000000 
M664.000000,115.407715 
	C663.999878,108.411087 664.218567,101.405998 663.948242,94.419830 
	C663.544617,83.986992 656.495239,80.359917 648.716064,81.189659 
	C645.406250,81.542686 642.298096,83.787117 638.884949,85.264336 
	C632.681396,79.811653 628.422424,79.564072 620.352600,83.833000 
	C615.640442,80.685341 611.310059,82.498978 607.282471,82.096107 
	C607.282471,95.735893 607.282471,108.665520 607.282471,121.652328 
	C611.288391,121.652328 615.004089,121.652328 619.000000,121.652328 
	C619.000000,119.660652 618.999695,118.015053 619.000000,116.369461 
	C619.001160,110.039230 618.828369,103.702187 619.075806,97.381592 
	C619.203857,94.111549 620.472046,91.030998 624.524841,91.054596 
	C628.565186,91.078110 629.535950,94.178535 629.963745,97.433334 
	C630.157471,98.907303 629.999756,100.427582 629.999878,101.926842 
	C630.000244,108.524330 630.000000,115.121826 630.000000,121.598190 
	C634.061340,121.598190 637.444214,121.598190 640.490540,121.598190 
	C641.007507,113.099594 641.579468,105.024498 641.956604,96.940308 
	C642.145996,92.880028 644.003296,90.724472 648.081665,91.051750 
	C652.385498,91.397141 652.011169,94.738029 652.005249,97.768547 
	C651.989746,105.710930 652.000000,113.653366 652.000000,121.654877 
	C656.282166,121.654877 659.997437,121.654877 664.000000,121.654877 
	C664.000000,119.666977 664.000000,118.022438 664.000000,115.407715 
M259.018280,121.992012 
	C262.595154,121.992012 266.172058,121.992012 270.211487,121.992012 
	C263.763000,103.844162 257.572479,86.422371 251.431152,69.138901 
	C246.227951,69.138901 241.417969,69.138901 236.509232,69.138901 
	C230.622009,86.622452 224.766800,104.010956 218.711456,121.993820 
	C222.384506,121.993820 225.531555,122.208801 228.620926,121.880661 
	C229.747070,121.761055 231.599548,120.402840 231.654877,119.518036 
	C232.261505,109.819565 238.570648,109.092621 246.062256,109.986778 
	C246.883133,110.084755 247.735214,110.080940 248.556702,109.985542 
	C251.561066,109.636658 253.324493,110.474442 254.173218,113.817711 
	C254.899521,116.678703 256.780396,119.246590 259.018280,121.992012 
M472.841522,110.691185 
	C472.022949,114.288307 471.204376,117.885422 470.268066,122.000000 
	C483.026001,122.000000 494.325989,122.000038 505.625946,121.999977 
	C512.848083,121.999947 512.835938,121.997681 514.147461,114.778030 
	C514.286926,114.010490 514.672363,113.287659 515.156006,111.962448 
	C505.702332,111.962448 496.673309,111.962448 486.653595,111.962448 
	C493.176178,103.970284 499.001862,96.721771 504.951355,89.576324 
	C509.867645,83.671783 515.696533,78.167206 512.349243,69.391724 
	C499.248871,69.391724 486.205902,69.391724 473.279236,69.391724 
	C473.279236,72.722984 473.279236,75.660095 473.279236,79.177422 
	C481.854706,79.177422 490.167755,79.177422 499.018921,79.177422 
	C490.115021,89.913017 481.736816,100.014740 472.841522,110.691185 
M319.828308,91.374908 
	C320.885559,94.015022 322.701782,96.612061 322.854523,99.303497 
	C323.275391,106.720772 323.000000,114.177544 323.000000,121.644241 
	C327.303833,121.644241 331.020081,121.644241 334.994751,121.644241 
	C334.994751,112.645493 335.361237,103.978394 334.850098,95.363365 
	C334.567169,90.594696 333.438843,85.652664 328.431000,82.920891 
	C322.342224,79.599480 316.685577,80.798141 310.761902,84.847420 
	C310.761902,78.223938 310.761902,72.288933 310.761902,66.369568 
	C306.668701,66.369568 302.952301,66.369568 299.250244,66.369568 
	C299.250244,85.002090 299.250244,103.263969 299.250244,121.685135 
	C303.221497,121.685135 306.937469,121.685135 311.000000,121.685135 
	C311.000000,113.904861 310.969757,106.435989 311.009552,98.967499 
	C311.041504,92.970848 312.868896,91.221954 319.828308,91.374908 
M379.676117,105.000000 
	C385.961731,105.000000 392.247345,105.000000 398.997620,105.000000 
	C398.997620,102.232475 399.240448,99.915504 398.952118,97.666641 
	C398.087280,90.922211 395.097260,84.970741 388.695984,82.496849 
	C381.413208,79.682289 373.995514,80.109383 367.586365,85.829849 
	C363.427856,89.541496 362.344238,94.171959 361.719788,99.409027 
	C360.299530,111.320198 365.303497,121.035423 377.215698,122.896347 
	C386.655609,124.371056 398.216248,118.501152 398.040192,108.526749 
	C394.129333,109.054535 389.570465,108.441162 386.565674,110.317062 
	C379.044464,115.012573 375.850464,114.218887 373.262817,105.000000 
	C375.162994,105.000000 376.950531,105.000000 379.676117,105.000000 
M447.638000,81.000153 
	C438.614838,81.416512 431.018646,87.857208 429.658722,97.823761 
	C428.533020,106.073883 429.827118,113.253510 435.524017,118.524635 
	C441.769470,124.303314 449.786896,124.270340 457.649536,120.995255 
	C462.106171,119.138885 465.911346,113.553123 465.396667,108.557457 
	C461.712708,109.079201 457.374939,108.521576 454.536041,110.324326 
	C447.216614,114.972313 443.371796,113.928566 441.234344,104.991455 
	C449.739471,104.991455 458.141174,104.991455 466.427734,104.991455 
	C468.836090,93.598625 462.573242,80.522240 447.638000,81.000153 
M519.048401,111.018005 
	C524.411560,124.315109 540.030701,125.876602 549.897644,119.044762 
	C555.419373,115.221527 558.640991,104.343025 556.683777,96.197266 
	C554.999878,89.188789 551.310242,84.083961 544.137146,82.004608 
	C536.315430,79.737198 528.774536,80.967819 523.190247,86.617722 
	C516.753601,93.129959 516.965027,101.709213 519.048401,111.018005 
M568.592529,119.063675 
	C572.396606,120.375412 576.141724,122.577263 580.015747,122.834000 
	C592.225586,123.643204 601.841736,114.333794 601.060669,101.186615 
	C600.627747,93.898865 598.434082,87.469894 592.030518,83.753807 
	C584.902283,79.617195 577.511719,80.454903 570.137146,84.230988 
	C559.636536,89.607742 559.209045,111.749779 568.592529,119.063675 
M275.771667,72.023941 
	C274.880005,75.225342 273.988342,78.426750 273.056488,81.772514 
	C271.643097,81.960045 269.908569,82.190186 268.251709,82.410019 
	C268.251709,85.361954 268.251709,87.964119 268.251709,90.788239 
	C270.215179,90.946465 271.949615,91.086235 274.000427,91.251495 
	C274.000427,97.577110 273.765015,103.552116 274.074066,109.498817 
	C274.326538,114.357414 274.467743,120.093758 280.158600,121.720673 
	C284.086029,122.843460 288.593811,121.936287 292.745422,121.936287 
	C292.745422,118.621033 292.745422,116.009453 292.745422,114.565315 
	C290.042206,112.920776 286.450165,111.859230 286.313049,110.459259 
	C285.689941,104.098045 286.040070,97.641510 286.040070,90.886902 
	C288.970062,90.886902 291.243164,90.886902 293.710327,90.886902 
	C293.710327,87.811264 293.710327,85.091919 293.710327,82.199081 
	C291.038025,82.037201 288.637390,81.891777 285.726471,81.715446 
	C285.726471,78.245247 285.726471,75.190651 285.726471,72.003525 
	C282.355316,72.003525 279.530396,72.003525 275.771667,72.023941 
M415.350372,72.000427 
	C412.731293,72.000427 410.112213,72.000427 406.967346,72.000427 
	C406.967346,75.520950 406.967346,78.585114 406.967346,81.668907 
	C404.709656,81.939964 402.973877,82.148361 401.396118,82.337784 
	C401.396118,85.415802 401.396118,88.130867 401.396118,90.812042 
	C403.401245,90.968094 405.009521,91.093262 407.000916,91.248245 
	C407.000916,97.662888 406.901550,103.787903 407.028687,109.908218 
	C407.157715,116.120201 409.985718,121.567833 413.506836,121.887871 
	C417.561768,122.256432 421.675934,121.973480 425.774902,121.973480 
	C425.774902,118.690147 425.774902,116.082481 425.774902,114.788109 
	C423.007812,112.863258 419.458618,111.641953 419.286255,110.054062 
	C418.614227,103.863625 419.012177,97.557037 419.012177,91.166237 
	C422.022552,91.025543 424.426575,90.913193 426.744446,90.804863 
	C426.744446,87.639771 426.744446,85.036911 426.744446,82.260933 
	C424.112335,82.068314 421.710052,81.892509 418.997131,81.693977 
	C418.997131,79.243431 419.298645,77.043137 418.877380,74.991219 
	C418.646393,73.866035 417.195953,72.991196 415.350372,72.000427 
M355.000000,106.496513 
	C355.000000,93.091522 355.000000,79.686531 355.000000,66.400635 
	C350.599518,66.400635 346.885986,66.400635 343.252441,66.400635 
	C343.252441,85.045219 343.252441,103.288116 343.252441,121.688873 
	C347.221924,121.688873 350.934082,121.688873 355.000000,121.688873 
	C355.000000,116.754745 355.000000,112.124847 355.000000,106.496513 
z"/>
<path fill="#2CB1BC" opacity="1.000000" stroke="none" 
	d="
M179.531342,1.000000 
	C188.491989,5.192714 196.816727,9.482264 202.356827,17.756884 
	C207.394989,25.281849 210.867538,33.394234 210.910690,42.387691 
	C211.112671,84.485077 211.140503,126.584801 210.890533,168.681671 
	C210.835907,177.881622 207.038528,185.900909 201.564941,193.602417 
	C196.253250,201.076126 189.269897,205.112289 181.145844,208.665176 
	C130.312439,209.000000 79.624878,209.000000 28.336306,208.671661 
	C14.993398,202.973831 6.388216,193.559631 1.000000,181.000000 
	C1.000000,130.979111 1.000000,80.958206 1.334753,30.322891 
	C3.124355,26.629482 4.201316,23.291203 6.103434,20.519121 
	C12.327312,11.448657 20.412140,4.585245 31.000000,1.000000 
	C80.354225,1.000000 129.708450,1.000000 179.531342,1.000000 
M138.871017,60.562695 
	C135.150223,50.066605 131.351212,39.597179 127.758972,29.057270 
	C126.754761,26.110813 125.294609,24.916040 122.036629,25.016352 
	C113.882828,25.267399 105.711998,25.248367 97.556717,25.022551 
	C94.489548,24.937622 93.237396,26.040056 92.290215,28.857050 
	C79.790497,66.032539 67.167961,103.166718 54.596806,140.318222 
	C54.155487,141.622452 53.928272,142.999130 53.506252,144.732224 
	C61.115948,144.732224 68.101494,144.581085 75.075264,144.801956 
	C78.132179,144.898773 79.429230,143.852936 80.323135,140.933350 
	C82.784355,132.894745 85.634483,124.975235 88.331802,117.005554 
	C101.810402,117.005554 114.795387,117.068245 127.778793,116.952560 
	C130.370148,116.929466 131.590805,117.761444 132.417618,120.263390 
	C134.763351,127.361610 137.333908,134.390152 140.024643,141.365616 
	C140.528854,142.672729 141.969711,144.532379 143.028946,144.566513 
	C151.272781,144.832260 159.528992,144.713379 168.767151,144.713379 
	C158.649200,116.303947 148.858734,88.813980 138.871017,60.562695 
z"/>
<path fill="#FFFFFF" opacity="1.000000" stroke="none" 
	d="
M30.531342,1.000000 
	C20.412140,4.585245 12.327312,11.448657 6.103434,20.519121 
	C4.201316,23.291203 3.124355,26.629482 1.334753,29.854233 
	C1.000000,20.405594 1.000000,10.811189 1.000000,1.000000 
	C10.686486,1.000000 20.374586,1.000000 30.531342,1.000000 
z"/>
<path fill="#FFFFFF" opacity="1.000000" stroke="none" 
	d="
M1.000000,181.468658 
	C6.388216,193.559631 14.993398,202.973831 27.867649,208.671661 
	C19.072218,209.000000 10.144435,209.000000 1.000000,209.000000 
	C1.000000,199.980255 1.000000,190.958786 1.000000,181.468658 
z"/>
<path fill="#2CB1BC" opacity="1.000000" stroke="none" 
	d="
M664.000000,115.892807 
	C664.000000,118.022438 664.000000,119.666977 664.000000,121.654877 
	C659.997437,121.654877 656.282166,121.654877 652.000000,121.654877 
	C652.000000,113.653366 651.989746,105.710930 652.005249,97.768547 
	C652.011169,94.738029 652.385498,91.397141 648.081665,91.051750 
	C644.003296,90.724472 642.145996,92.880028 641.956604,96.940308 
	C641.579468,105.024498 641.007507,113.099594 640.490540,121.598190 
	C637.444214,121.598190 634.061340,121.598190 630.000000,121.598190 
	C630.000000,115.121826 630.000244,108.524330 629.999878,101.926842 
	C629.999756,100.427582 630.157471,98.907303 629.963745,97.433334 
	C629.535950,94.178535 628.565186,91.078110 624.524841,91.054596 
	C620.472046,91.030998 619.203857,94.111549 619.075806,97.381592 
	C618.828369,103.702187 619.001160,110.039230 619.000000,116.369461 
	C618.999695,118.015053 619.000000,119.660652 619.000000,121.652328 
	C615.004089,121.652328 611.288391,121.652328 607.282471,121.652328 
	C607.282471,108.665520 607.282471,95.735893 607.282471,82.096107 
	C611.310059,82.498978 615.640442,80.685341 620.352600,83.833000 
	C628.422424,79.564072 632.681396,79.811653 638.884949,85.264336 
	C642.298096,83.787117 645.406250,81.542686 648.716064,81.189659 
	C656.495239,80.359917 663.544617,83.986992 663.948242,94.419830 
	C664.218567,101.405998 663.999878,108.411087 664.000000,115.892807 
z"/>
<path fill="#2CB1BC" opacity="1.000000" stroke="none" 
	d="
M258.584473,121.968063 
	C256.780396,119.246590 254.899521,116.678703 254.173218,113.817711 
	C253.324493,110.474442 251.561066,109.636658 248.556702,109.985542 
	C247.735214,110.080940 246.883133,110.084755 246.062256,109.986778 
	C238.570648,109.092621 232.261505,109.819565 231.654877,119.518036 
	C231.599548,120.402840 229.747070,121.761055 228.620926,121.880661 
	C225.531555,122.208801 222.384506,121.993820 218.711456,121.993820 
	C224.766800,104.010956 230.622009,86.622452 236.509232,69.138901 
	C241.417969,69.138901 246.227951,69.138901 251.431152,69.138901 
	C257.572479,86.422371 263.763000,103.844162 270.211487,121.992012 
	C266.172058,121.992012 262.595154,121.992012 258.584473,121.968063 
M244.421616,100.000000 
	C246.182098,100.000000 247.942581,100.000000 250.200531,100.000000 
	C247.939285,93.384514 245.902466,87.425545 243.550751,80.545372 
	C241.439606,87.548073 239.665237,93.433640 237.685638,100.000000 
	C239.991974,100.000000 241.758286,100.000000 244.421616,100.000000 
z"/>
<path fill="#2CB1BC" opacity="1.000000" stroke="none" 
	d="
M473.100098,110.403824 
	C481.736816,100.014740 490.115021,89.913017 499.018921,79.177422 
	C490.167755,79.177422 481.854706,79.177422 473.279236,79.177422 
	C473.279236,75.660095 473.279236,72.722984 473.279236,69.391724 
	C486.205902,69.391724 499.248871,69.391724 512.349243,69.391724 
	C515.696533,78.167206 509.867645,83.671783 504.951355,89.576324 
	C499.001862,96.721771 493.176178,103.970284 486.653595,111.962448 
	C496.673309,111.962448 505.702332,111.962448 515.156006,111.962448 
	C514.672363,113.287659 514.286926,114.010490 514.147461,114.778030 
	C512.835938,121.997681 512.848083,121.999947 505.625946,121.999977 
	C494.325989,122.000038 483.026001,122.000000 470.268066,122.000000 
	C471.204376,117.885422 472.022949,114.288307 473.100098,110.403824 
z"/>
<path fill="#2CB1BC" opacity="1.000000" stroke="none" 
	d="
M319.454193,91.222855 
	C312.868896,91.221954 311.041504,92.970848 311.009552,98.967499 
	C310.969757,106.435989 311.000000,113.904861 311.000000,121.685135 
	C306.937469,121.685135 303.221497,121.685135 299.250244,121.685135 
	C299.250244,103.263969 299.250244,85.002090 299.250244,66.369568 
	C302.952301,66.369568 306.668701,66.369568 310.761902,66.369568 
	C310.761902,72.288933 310.761902,78.223938 310.761902,84.847420 
	C316.685577,80.798141 322.342224,79.599480 328.431000,82.920891 
	C333.438843,85.652664 334.567169,90.594696 334.850098,95.363365 
	C335.361237,103.978394 334.994751,112.645493 334.994751,121.644241 
	C331.020081,121.644241 327.303833,121.644241 323.000000,121.644241 
	C323.000000,114.177544 323.275391,106.720772 322.854523,99.303497 
	C322.701782,96.612061 320.885559,94.015022 319.454193,91.222855 
z"/>
<path fill="#2CB1BC" opacity="1.000000" stroke="none" 
	d="
M379.207092,105.000000 
	C376.950531,105.000000 375.162994,105.000000 373.262817,105.000000 
	C375.850464,114.218887 379.044464,115.012573 386.565674,110.317062 
	C389.570465,108.441162 394.129333,109.054535 398.040192,108.526749 
	C398.216248,118.501152 386.655609,124.371056 377.215698,122.896347 
	C365.303497,121.035423 360.299530,111.320198 361.719788,99.409027 
	C362.344238,94.171959 363.427856,89.541496 367.586365,85.829849 
	C373.995514,80.109383 381.413208,79.682289 388.695984,82.496849 
	C395.097260,84.970741 398.087280,90.922211 398.952118,97.666641 
	C399.240448,99.915504 398.997620,102.232475 398.997620,105.000000 
	C392.247345,105.000000 385.961731,105.000000 379.207092,105.000000 
M376.005615,96.991562 
	C379.587708,96.991562 383.169800,96.991562 387.509308,96.991562 
	C386.696533,94.929100 386.490448,93.337227 385.604401,92.365204 
	C383.279968,89.815300 380.395355,89.044411 377.228607,90.962250 
	C374.921814,92.359276 372.996155,93.956276 376.005615,96.991562 
z"/>
<path fill="#2CB1BC" opacity="1.000000" stroke="none" 
	d="
M448.076660,81.000092 
	C462.573242,80.522240 468.836090,93.598625 466.427734,104.991455 
	C458.141174,104.991455 449.739471,104.991455 441.234344,104.991455 
	C443.371796,113.928566 447.216614,114.972313 454.536041,110.324326 
	C457.374939,108.521576 461.712708,109.079201 465.396667,108.557457 
	C465.911346,113.553123 462.106171,119.138885 457.649536,120.995255 
	C449.786896,124.270340 441.769470,124.303314 435.524017,118.524635 
	C429.827118,113.253510 428.533020,106.073883 429.658722,97.823761 
	C431.018646,87.857208 438.614838,81.416512 448.076660,81.000092 
M449.292114,90.011604 
	C444.821930,89.970016 442.255219,91.910629 442.170746,96.793243 
	C446.482452,96.793243 450.585907,96.793243 454.689392,96.793243 
	C455.043610,96.383827 455.397858,95.974411 455.752075,95.564995 
	C453.866119,93.732811 451.980164,91.900635 449.292114,90.011604 
z"/>
<path fill="#2CB1BC" opacity="1.000000" stroke="none" 
	d="
M519.009705,110.606018 
	C516.965027,101.709213 516.753601,93.129959 523.190247,86.617722 
	C528.774536,80.967819 536.315430,79.737198 544.137146,82.004608 
	C551.310242,84.083961 554.999878,89.188789 556.683777,96.197266 
	C558.640991,104.343025 555.419373,115.221527 549.897644,119.044762 
	C540.030701,125.876602 524.411560,124.315109 519.009705,110.606018 
M530.000671,98.907074 
	C530.318726,101.974930 530.423218,105.084541 531.012573,108.099350 
	C531.651306,111.366508 533.764771,113.018250 537.302856,113.054977 
	C540.998535,113.093330 543.320923,111.566544 544.020569,108.000534 
	C544.549377,105.305801 545.071350,102.511124 544.907837,99.802513 
	C544.668213,95.834656 543.768860,91.808250 538.850342,91.046394 
	C534.061951,90.304665 531.880249,92.166245 530.000671,98.907074 
z"/>
<path fill="#2CB1BC" opacity="1.000000" stroke="none" 
	d="
M568.318115,118.809128 
	C559.209045,111.749779 559.636536,89.607742 570.137146,84.230988 
	C577.511719,80.454903 584.902283,79.617195 592.030518,83.753807 
	C598.434082,87.469894 600.627747,93.898865 601.060669,101.186615 
	C601.841736,114.333794 592.225586,123.643204 580.015747,122.834000 
	C576.141724,122.577263 572.396606,120.375412 568.318115,118.809128 
M577.704285,91.851837 
	C574.047119,95.656265 572.614807,103.486603 574.709290,108.225456 
	C576.718933,112.772491 581.615662,114.700233 585.118103,112.323288 
	C588.683533,109.903625 589.970032,101.819717 588.099854,95.901474 
	C586.425842,90.603905 582.633606,90.527344 577.704285,91.851837 
z"/>
<path fill="#2CB1BC" opacity="1.000000" stroke="none" 
	d="
M276.238586,72.013733 
	C279.530396,72.003525 282.355316,72.003525 285.726471,72.003525 
	C285.726471,75.190651 285.726471,78.245247 285.726471,81.715446 
	C288.637390,81.891777 291.038025,82.037201 293.710327,82.199081 
	C293.710327,85.091919 293.710327,87.811264 293.710327,90.886902 
	C291.243164,90.886902 288.970062,90.886902 286.040070,90.886902 
	C286.040070,97.641510 285.689941,104.098045 286.313049,110.459259 
	C286.450165,111.859230 290.042206,112.920776 292.745422,114.565315 
	C292.745422,116.009453 292.745422,118.621033 292.745422,121.936287 
	C288.593811,121.936287 284.086029,122.843460 280.158600,121.720673 
	C274.467743,120.093758 274.326538,114.357414 274.074066,109.498817 
	C273.765015,103.552116 274.000427,97.577110 274.000427,91.251495 
	C271.949615,91.086235 270.215179,90.946465 268.251709,90.788239 
	C268.251709,87.964119 268.251709,85.361954 268.251709,82.410019 
	C269.908569,82.190186 271.643097,81.960045 273.056488,81.772514 
	C273.988342,78.426750 274.880005,75.225342 276.238586,72.013733 
z"/>
<path fill="#2CB1BC" opacity="1.000000" stroke="none" 
	d="
M415.822876,72.001953 
	C417.195953,72.991196 418.646393,73.866035 418.877380,74.991219 
	C419.298645,77.043137 418.997131,79.243431 418.997131,81.693977 
	C421.710052,81.892509 424.112335,82.068314 426.744446,82.260933 
	C426.744446,85.036911 426.744446,87.639771 426.744446,90.804863 
	C424.426575,90.913193 422.022552,91.025543 419.012177,91.166237 
	C419.012177,97.557037 418.614227,103.863625 419.286255,110.054062 
	C419.458618,111.641953 423.007812,112.863258 425.774902,114.788109 
	C425.774902,116.082481 425.774902,118.690147 425.774902,121.973480 
	C421.675934,121.973480 417.561768,122.256432 413.506836,121.887871 
	C409.985718,121.567833 407.157715,116.120201 407.028687,109.908218 
	C406.901550,103.787903 407.000916,97.662888 407.000916,91.248245 
	C405.009521,91.093262 403.401245,90.968094 401.396118,90.812042 
	C401.396118,88.130867 401.396118,85.415802 401.396118,82.337784 
	C402.973877,82.148361 404.709656,81.939964 406.967346,81.668907 
	C406.967346,78.585114 406.967346,75.520950 406.967346,72.000427 
	C410.112213,72.000427 412.731293,72.000427 415.822876,72.001953 
z"/>
<path fill="#2CB1BC" opacity="1.000000" stroke="none" 
	d="
M355.000000,106.995728 
	C355.000000,112.124847 355.000000,116.754745 355.000000,121.688873 
	C350.934082,121.688873 347.221924,121.688873 343.252441,121.688873 
	C343.252441,103.288116 343.252441,85.045219 343.252441,66.400635 
	C346.885986,66.400635 350.599518,66.400635 355.000000,66.400635 
	C355.000000,79.686531 355.000000,93.091522 355.000000,106.995728 
z"/>
<path fill="#F8F6F7" opacity="1.000000" stroke="none" 
	d="
M138.969635,60.943352 
	C148.858734,88.813980 158.649200,116.303947 168.767151,144.713379 
	C159.528992,144.713379 151.272781,144.832260 143.028946,144.566513 
	C141.969711,144.532379 140.528854,142.672729 140.024643,141.365616 
	C137.333908,134.390152 134.763351,127.361610 132.417618,120.263390 
	C131.590805,117.761444 130.370148,116.929466 127.778793,116.952560 
	C114.795387,117.068245 101.810402,117.005554 88.331802,117.005554 
	C85.634483,124.975235 82.784355,132.894745 80.323135,140.933350 
	C79.429230,143.852936 78.132179,144.898773 75.075264,144.801956 
	C68.101494,144.581085 61.115948,144.732224 53.506252,144.732224 
	C53.928272,142.999130 54.155487,141.622452 54.596806,140.318222 
	C67.167961,103.166718 79.790497,66.032539 92.290215,28.857050 
	C93.237396,26.040056 94.489548,24.937622 97.556717,25.022551 
	C105.711998,25.248367 113.882828,25.267399 122.036629,25.016352 
	C125.294609,24.916040 126.754761,26.110813 127.758972,29.057270 
	C131.351212,39.597179 135.150223,50.066605 138.969635,60.943352 
M115.951347,66.517982 
	C113.814415,59.825294 111.677475,53.132607 109.165810,45.266289 
	C103.869987,62.755913 98.947807,79.011551 93.950951,95.513794 
	C104.559113,95.513794 114.637917,95.513794 125.547569,95.513794 
	C122.303879,85.774689 119.224922,76.530182 115.951347,66.517982 
z"/>
<path fill="#FFFFFF" opacity="1.000000" stroke="none" 
	d="
M243.973114,100.000000 
	C241.758286,100.000000 239.991974,100.000000 237.685638,100.000000 
	C239.665237,93.433640 241.439606,87.548073 243.550751,80.545372 
	C245.902466,87.425545 247.939285,93.384514 250.200531,100.000000 
	C247.942581,100.000000 246.182098,100.000000 243.973114,100.000000 
z"/>
<path fill="#FFFFFF" opacity="1.000000" stroke="none" 
	d="
M375.570496,96.966095 
	C372.996155,93.956276 374.921814,92.359276 377.228607,90.962250 
	C380.395355,89.044411 383.279968,89.815300 385.604401,92.365204 
	C386.490448,93.337227 386.696533,94.929100 387.509308,96.991562 
	C383.169800,96.991562 379.587708,96.991562 375.570496,96.966095 
z"/>
<path fill="#FFFFFF" opacity="1.000000" stroke="none" 
	d="
M449.693176,90.040024 
	C451.980164,91.900635 453.866119,93.732811 455.752075,95.564995 
	C455.397858,95.974411 455.043610,96.383827 454.689392,96.793243 
	C450.585907,96.793243 446.482452,96.793243 442.170746,96.793243 
	C442.255219,91.910629 444.821930,89.970016 449.693176,90.040024 
z"/>
<path fill="#FFFFFF" opacity="1.000000" stroke="none" 
	d="
M530.003174,98.473663 
	C531.880249,92.166245 534.061951,90.304665 538.850342,91.046394 
	C543.768860,91.808250 544.668213,95.834656 544.907837,99.802513 
	C545.071350,102.511124 544.549377,105.305801 544.020569,108.000534 
	C543.320923,111.566544 540.998535,113.093330 537.302856,113.054977 
	C533.764771,113.018250 531.651306,111.366508 531.012573,108.099350 
	C530.423218,105.084541 530.318726,101.974930 530.003174,98.473663 
z"/>
<path fill="#FFFFFF" opacity="1.000000" stroke="none" 
	d="
M577.995911,91.566803 
	C582.633606,90.527344 586.425842,90.603905 588.099854,95.901474 
	C589.970032,101.819717 588.683533,109.903625 585.118103,112.323288 
	C581.615662,114.700233 576.718933,112.772491 574.709290,108.225456 
	C572.614807,103.486603 574.047119,95.656265 577.995911,91.566803 
z"/>
<path fill="#32B3BD" opacity="1.000000" stroke="none" 
	d="
M116.048660,66.901825 
	C119.224922,76.530182 122.303879,85.774689 125.547569,95.513794 
	C114.637917,95.513794 104.559113,95.513794 93.950951,95.513794 
	C98.947807,79.011551 103.869987,62.755913 109.165810,45.266289 
	C111.677475,53.132607 113.814415,59.825294 116.048660,66.901825 
z"/>
</svg>