<svg version="1.1" id="Layer_1" xmlns="http://www.w3.org/2000/svg" xmlns:xlink="http://www.w3.org/1999/xlink" x="0px" y="0px"
	 width="164" height="50" viewBox="0 0 683 208" enable-background="new 0 0 683 208" xml:space="preserve">
<path fill="#FFFEFE" opacity="1.000000" stroke="none" 
	d="
M180.000000,1.000000 
	C347.940491,1.000000 515.880981,1.000000 683.910767,1.000000 
	C683.910767,70.249176 683.910767,139.498505 683.910767,209.000000 
	C516.643433,209.000000 349.286713,209.000000 181.599716,208.657104 
	C189.379318,205.075119 196.479904,201.020157 201.772125,193.324982 
	C206.985580,185.744354 210.828903,177.932693 210.883896,168.957794 
	C211.142914,126.698425 211.126160,84.435913 210.896515,42.176216 
	C210.847961,33.240467 207.327469,25.166752 202.288269,17.675495 
	C196.744843,9.434704 188.434952,5.207616 180.000000,1.000000 
M641.005676,107.522255 
	C641.255310,103.220512 641.007507,98.799690 641.994934,94.674568 
	C642.400269,92.981232 645.505798,90.830360 647.317200,90.889946 
	C649.105774,90.948784 651.254456,93.259743 652.405518,95.106163 
	C653.249451,96.459839 652.807373,98.659149 652.815613,100.482140 
	C652.846924,107.393631 652.828186,114.305351 652.828186,121.143295 
	C656.798706,121.143295 660.017273,121.143295 663.427734,121.143295 
	C663.427734,111.591904 663.820007,102.430901 663.313171,93.319916 
	C662.842407,84.857605 657.011108,80.471268 648.621277,81.978020 
	C645.271362,82.579628 642.182922,84.636940 638.759888,86.125313 
	C632.799377,80.232277 627.423584,79.913292 619.256592,85.356903 
	C616.417419,80.237114 611.981995,83.084923 608.025635,82.678474 
	C608.025635,95.743546 608.025635,108.360054 608.025635,121.100861 
	C611.587708,121.100861 614.943542,121.100861 618.764404,121.100861 
	C618.764404,113.010590 618.676697,105.362915 618.799561,97.718636 
	C618.866028,93.584724 620.558472,90.371330 625.295959,90.669373 
	C629.756042,90.949974 630.181030,94.392586 630.163147,97.970604 
	C630.124939,105.604134 630.151428,113.237991 630.151428,121.206947 
	C633.918091,121.206947 637.311279,121.206947 641.005615,121.206947 
	C641.005615,116.804047 641.005615,112.655891 641.005676,107.522255 
M231.172409,119.760353 
	C234.640396,109.850784 234.640396,109.850784 245.370224,109.850822 
	C245.702820,109.850822 246.045792,109.904701 246.366486,109.842926 
	C251.705750,108.814507 254.599930,110.986885 255.699158,116.333824 
	C256.080200,118.187332 257.478516,120.933868 258.875031,121.254059 
	C262.086517,121.990425 265.582214,121.487450 269.533051,121.487450 
	C264.351532,106.862511 259.495728,93.134003 254.623093,79.411469 
	C251.142014,69.607979 251.132324,69.712730 240.558365,69.754890 
	C237.796310,69.765907 236.425690,70.484779 235.612823,73.269920 
	C234.082565,78.513084 232.041077,83.604996 230.292404,88.786880 
	C226.703934,99.420586 223.168442,110.072174 219.185532,121.989937 
	C223.755295,121.422974 227.340591,120.978149 231.172409,119.760353 
M510.310913,69.832237 
	C498.033447,69.832237 485.756012,69.832237 473.355804,69.832237 
	C473.355804,73.123802 473.355804,75.978722 473.355804,79.264755 
	C482.076019,79.264755 490.439178,79.264755 499.578064,79.264755 
	C490.808472,89.888466 482.746826,100.012161 474.253510,109.759720 
	C471.056427,113.428978 471.137878,117.038597 471.921417,121.344765 
	C485.635986,121.344765 499.077026,121.344765 512.905457,121.344765 
	C513.345947,118.421829 513.778137,115.554077 514.313721,112.000084 
	C504.725739,112.000084 495.730469,112.000084 486.033051,112.000084 
	C487.199341,110.499527 487.778809,109.720848 488.392181,108.969864 
	C495.865784,99.820168 503.355835,90.683868 510.816071,81.523293 
	C513.793274,77.867584 513.961609,72.664940 510.310913,69.832237 
M306.345612,121.571968 
	C308.893066,121.848221 310.551361,121.279739 310.225342,118.138367 
	C310.002869,115.995094 310.137726,113.808868 310.192505,111.643867 
	C310.318695,106.659500 310.299835,101.660393 310.708771,96.697670 
	C311.046814,92.595192 313.571747,90.426773 317.786316,90.667137 
	C321.796783,90.895874 323.129333,93.583824 323.227966,97.122093 
	C323.357880,101.782967 323.382599,106.447090 323.421112,111.110077 
	C323.449249,114.514236 323.426605,117.918831 323.426605,121.313507 
	C327.456604,121.313507 330.572571,121.313507 333.964539,121.313507 
	C333.964539,111.436829 334.328217,101.798630 333.833038,92.204758 
	C333.517853,86.097435 329.088684,81.972534 322.961395,81.925735 
	C318.770721,81.893745 314.567841,83.462425 310.018951,84.386932 
	C310.018951,79.193657 310.018951,73.146782 310.018951,67.236626 
	C306.126221,67.236626 302.751038,67.236626 299.364258,67.236626 
	C299.364258,85.429977 299.364258,103.201981 299.364258,121.573097 
	C301.538086,121.573097 303.491150,121.573097 306.345612,121.571968 
M464.730255,104.532707 
	C465.329193,103.880249 466.336853,103.299088 466.464996,102.564529 
	C468.068939,93.369614 462.125793,83.879524 453.753113,82.077484 
	C442.655396,79.688942 433.486084,84.382820 431.013763,94.458160 
	C429.934387,98.856995 429.723083,103.771164 430.432098,108.242882 
	C431.858398,117.238846 438.928772,122.513100 448.204987,122.544220 
	C457.299072,122.574730 463.703064,117.978920 465.757233,109.114647 
	C461.634827,109.902695 457.473816,109.833939 454.281464,111.558434 
	C451.263550,113.188713 448.761719,114.541138 445.563324,113.022720 
	C442.222961,111.436897 441.019287,108.596832 441.198334,104.563454 
	C448.928955,104.563454 456.392700,104.563454 464.730255,104.532707 
M398.289520,97.189270 
	C396.452759,86.718773 390.869415,81.692528 380.896454,81.531624 
	C370.990265,81.371796 363.987366,86.923447 362.350952,96.774368 
	C361.760651,100.327988 361.715240,104.139542 362.300323,107.688446 
	C363.829987,116.966957 370.751160,122.487022 380.170410,122.532921 
	C389.228210,122.577049 395.739563,117.950745 397.830078,109.150688 
	C393.704224,109.908089 389.508240,109.773346 386.351746,111.518639 
	C383.343842,113.181770 380.849030,114.561707 377.670929,113.052231 
	C374.373993,111.486313 372.932587,108.714340 373.250610,104.461311 
	C381.655762,104.461311 389.891571,104.461311 398.431061,104.461311 
	C398.431061,101.937820 398.431061,99.971817 398.289520,97.189270 
M562.407104,97.223747 
	C561.178650,106.371399 562.528748,114.684547 571.133972,119.871964 
	C580.885681,125.750488 593.962280,121.920715 598.535583,112.196297 
	C603.885437,100.820518 599.376099,86.876831 589.052124,82.872025 
	C577.426941,78.362465 566.118652,84.153328 562.407104,97.223747 
M543.022156,121.819878 
	C553.583435,117.923027 558.502441,109.094711 556.447510,97.724876 
	C554.536499,87.151405 547.245605,81.101593 537.040894,81.621780 
	C525.828247,82.193352 518.775818,89.132515 518.150757,100.208488 
	C517.288025,115.495758 526.471863,123.791222 543.022156,121.819878 
M418.860138,94.646103 
	C418.162231,88.064018 423.985809,92.340324 426.154785,90.186317 
	C426.154785,87.799438 426.154785,85.273605 426.154785,82.640671 
	C423.624146,82.481544 421.501556,82.348068 418.842590,82.180870 
	C418.842590,78.836380 418.842590,75.604622 418.842590,72.280457 
	C414.897217,72.280457 411.503021,72.280457 407.733673,72.280457 
	C407.733673,75.675919 407.733673,78.780212 407.733673,81.994965 
	C405.629150,82.313461 403.879242,82.578285 402.250702,82.824745 
	C402.250702,85.622887 402.250702,88.158813 402.250702,90.631950 
	C404.279999,90.847519 405.874542,91.016907 407.966278,91.239113 
	C407.966278,98.767159 407.890259,106.048561 407.994110,113.327400 
	C408.058838,117.863693 410.352692,121.063301 414.884735,121.777351 
	C418.068665,122.278992 421.395386,121.874237 424.871368,121.874237 
	C424.871368,118.824715 424.871368,116.438622 424.871368,113.665901 
	C419.427673,114.736076 418.651367,111.703979 418.824860,107.570564 
	C418.991882,103.590691 418.860138,99.598274 418.860138,94.646103 
M285.857788,98.539734 
	C285.857788,96.096939 285.857788,93.654137 285.857788,91.097008 
	C288.640717,90.906242 290.882141,90.752602 293.120605,90.599159 
	C293.120605,87.724472 293.120605,85.201569 293.120605,82.635376 
	C290.558441,82.469887 288.442200,82.333199 285.786285,82.161652 
	C285.786285,78.757652 285.786285,75.529366 285.786285,72.309700 
	C281.827606,72.309700 278.430267,72.309700 274.663910,72.309700 
	C274.663910,75.739708 274.663910,78.844360 274.663910,81.992683 
	C272.561462,82.321877 270.822876,82.594101 269.102386,82.863487 
	C269.102386,85.577484 269.102386,87.999092 269.102386,90.560204 
	C271.080658,90.794632 272.808929,90.999435 274.923309,91.249992 
	C274.923309,98.691452 274.869629,105.811562 274.942902,112.930374 
	C274.988831,117.387085 276.938568,120.876160 281.491333,121.682465 
	C284.807617,122.269783 288.311615,121.797310 291.951752,121.797310 
	C291.951752,118.888466 291.951752,116.621979 291.951752,113.958763 
	C286.437775,114.635033 285.395538,111.516006 285.818298,106.989426 
	C286.048950,104.519173 285.858032,102.009544 285.857788,98.539734 
M343.824890,108.488953 
	C343.824890,112.729729 343.824890,116.970512 343.824890,121.095375 
	C347.920227,121.095375 351.278931,121.095375 354.485901,121.095375 
	C354.485901,102.785858 354.485901,84.936943 354.485901,67.058929 
	C350.851196,67.058929 347.585724,67.058929 343.824860,67.058929 
	C343.824860,80.688293 343.824860,94.090782 343.824890,108.488953 
z"/>
<path fill="#ED3F3E" opacity="1.000000" stroke="none" 
	d="
M179.531342,1.000000 
	C188.434952,5.207616 196.744843,9.434704 202.288269,17.675495 
	C207.327469,25.166752 210.847961,33.240467 210.896515,42.176216 
	C211.126160,84.435913 211.142914,126.698425 210.883896,168.957794 
	C210.828903,177.932693 206.985580,185.744354 201.772125,193.324982 
	C196.479904,201.020157 189.379318,205.075119 181.134705,208.657104 
	C130.312439,209.000000 79.624878,209.000000 28.345959,208.664932 
	C15.004558,202.971100 6.373874,193.579681 1.000000,181.000000 
	C1.000000,130.979111 1.000000,80.958206 1.342726,30.333675 
	C3.130208,26.649179 4.190432,23.304445 6.090293,20.535896 
	C12.317771,11.460991 20.391310,4.570698 31.000000,1.000000 
	C80.354225,1.000000 129.708450,1.000000 179.531342,1.000000 
M82.988609,132.565262 
	C84.746887,127.412529 86.505157,122.259789 88.298187,117.005196 
	C101.755234,117.005196 114.909065,116.912659 128.057404,117.138817 
	C129.476166,117.163231 131.591141,118.741562 132.142319,120.101868 
	C134.948624,127.027725 137.273041,134.147247 139.951080,141.128036 
	C140.467285,142.473602 141.776382,144.489822 142.774277,144.522324 
	C151.152176,144.795273 159.542801,144.677704 168.017914,144.677704 
	C167.949768,143.345306 168.039307,142.821045 167.884033,142.383713 
	C154.372055,104.330292 140.814728,66.292923 127.371002,28.215435 
	C126.470314,25.664333 125.132988,25.013556 122.627518,25.055490 
	C114.632690,25.189297 106.624687,25.335047 98.641273,25.004704 
	C94.802452,24.845858 93.215950,26.129675 92.006134,29.738918 
	C80.492699,64.087273 68.767441,98.364601 57.124718,132.669693 
	C55.825989,136.496353 54.661594,140.368607 53.281429,144.701538 
	C58.277355,144.701538 62.426472,144.701508 66.575584,144.701553 
	C78.898796,144.701691 78.898796,144.701706 82.988609,132.565262 
z"/>
<path fill="#FFFFFF" opacity="1.000000" stroke="none" 
	d="
M30.531342,1.000000 
	C20.391310,4.570698 12.317771,11.460991 6.090293,20.535896 
	C4.190432,23.304445 3.130208,26.649179 1.342726,29.865017 
	C1.000000,20.405594 1.000000,10.811189 1.000000,1.000000 
	C10.686486,1.000000 20.374586,1.000000 30.531342,1.000000 
z"/>
<path fill="#FFFFFE" opacity="1.000000" stroke="none" 
	d="
M1.000000,181.468658 
	C6.373874,193.579681 15.004558,202.971100 27.877300,208.664932 
	C19.072218,209.000000 10.144435,209.000000 1.000000,209.000000 
	C1.000000,199.980255 1.000000,190.958786 1.000000,181.468658 
z"/>
<path fill="#F70B4A" opacity="1.000000" stroke="none" 
	d="
M641.005615,108.014999 
	C641.005615,112.655891 641.005615,116.804047 641.005615,121.206947 
	C637.311279,121.206947 633.918091,121.206947 630.151428,121.206947 
	C630.151428,113.237991 630.124939,105.604134 630.163147,97.970604 
	C630.181030,94.392586 629.756042,90.949974 625.295959,90.669373 
	C620.558472,90.371330 618.866028,93.584724 618.799561,97.718636 
	C618.676697,105.362915 618.764404,113.010590 618.764404,121.100861 
	C614.943542,121.100861 611.587708,121.100861 608.025635,121.100861 
	C608.025635,108.360054 608.025635,95.743546 608.025635,82.678474 
	C611.981995,83.084923 616.417419,80.237114 619.256592,85.356903 
	C627.423584,79.913292 632.799377,80.232277 638.759888,86.125313 
	C642.182922,84.636940 645.271362,82.579628 648.621277,81.978020 
	C657.011108,80.471268 662.842407,84.857605 663.313171,93.319916 
	C663.820007,102.430901 663.427734,111.591904 663.427734,121.143295 
	C660.017273,121.143295 656.798706,121.143295 652.828186,121.143295 
	C652.828186,114.305351 652.846924,107.393631 652.815613,100.482140 
	C652.807373,98.659149 653.249451,96.459839 652.405518,95.106163 
	C651.254456,93.259743 649.105774,90.948784 647.317200,90.889946 
	C645.505798,90.830360 642.400269,92.981232 641.994934,94.674568 
	C641.007507,98.799690 641.255310,103.220512 641.005615,108.014999 
z"/>
<path fill="#F70D4C" opacity="1.000000" stroke="none" 
	d="
M231.049149,120.146835 
	C227.340591,120.978149 223.755295,121.422974 219.185532,121.989937 
	C223.168442,110.072174 226.703934,99.420586 230.292404,88.786880 
	C232.041077,83.604996 234.082565,78.513084 235.612823,73.269920 
	C236.425690,70.484779 237.796310,69.765907 240.558365,69.754890 
	C251.132324,69.712730 251.142014,69.607979 254.623093,79.411469 
	C259.495728,93.134003 264.351532,106.862511 269.533051,121.487450 
	C265.582214,121.487450 262.086517,121.990425 258.875031,121.254059 
	C257.478516,120.933868 256.080200,118.187332 255.699158,116.333824 
	C254.599930,110.986885 251.705750,108.814507 246.366486,109.842926 
	C246.045792,109.904701 245.702820,109.850822 245.370224,109.850822 
	C234.640396,109.850784 234.640396,109.850784 231.049149,120.146835 
M249.884949,99.767555 
	C247.967712,93.009018 246.050476,86.250488 243.794983,78.299515 
	C242.357544,82.964844 241.307495,86.251083 240.335876,89.560349 
	C239.346252,92.930878 238.433838,96.324066 237.375580,100.107933 
	C241.786316,100.107933 245.419174,100.107933 249.884949,99.767555 
z"/>
<path fill="#F70B4A" opacity="1.000000" stroke="none" 
	d="
M510.788483,69.840271 
	C513.961609,72.664940 513.793274,77.867584 510.816071,81.523293 
	C503.355835,90.683868 495.865784,99.820168 488.392181,108.969864 
	C487.778809,109.720848 487.199341,110.499527 486.033051,112.000084 
	C495.730469,112.000084 504.725739,112.000084 514.313721,112.000084 
	C513.778137,115.554077 513.345947,118.421829 512.905457,121.344765 
	C499.077026,121.344765 485.635986,121.344765 471.921417,121.344765 
	C471.137878,117.038597 471.056427,113.428978 474.253510,109.759720 
	C482.746826,100.012161 490.808472,89.888466 499.578064,79.264755 
	C490.439178,79.264755 482.076019,79.264755 473.355804,79.264755 
	C473.355804,75.978722 473.355804,73.123802 473.355804,69.832237 
	C485.756012,69.832237 498.033447,69.832237 510.788483,69.840271 
z"/>
<path fill="#F7104D" opacity="1.000000" stroke="none" 
	d="
M305.894897,121.572533 
	C303.491150,121.573097 301.538086,121.573097 299.364258,121.573097 
	C299.364258,103.201981 299.364258,85.429977 299.364258,67.236626 
	C302.751038,67.236626 306.126221,67.236626 310.018951,67.236626 
	C310.018951,73.146782 310.018951,79.193657 310.018951,84.386932 
	C314.567841,83.462425 318.770721,81.893745 322.961395,81.925735 
	C329.088684,81.972534 333.517853,86.097435 333.833038,92.204758 
	C334.328217,101.798630 333.964539,111.436829 333.964539,121.313507 
	C330.572571,121.313507 327.456604,121.313507 323.426605,121.313507 
	C323.426605,117.918831 323.449249,114.514236 323.421112,111.110077 
	C323.382599,106.447090 323.357880,101.782967 323.227966,97.122093 
	C323.129333,93.583824 321.796783,90.895874 317.786316,90.667137 
	C313.571747,90.426773 311.046814,92.595192 310.708771,96.697670 
	C310.299835,101.660393 310.318695,106.659500 310.192505,111.643867 
	C310.137726,113.808868 310.002869,115.995094 310.225342,118.138367 
	C310.551361,121.279739 308.893066,121.848221 305.894897,121.572533 
z"/>
<path fill="#F70F4D" opacity="1.000000" stroke="none" 
	d="
M464.293335,104.548080 
	C456.392700,104.563454 448.928955,104.563454 441.198334,104.563454 
	C441.019287,108.596832 442.222961,111.436897 445.563324,113.022720 
	C448.761719,114.541138 451.263550,113.188713 454.281464,111.558434 
	C457.473816,109.833939 461.634827,109.902695 465.757233,109.114647 
	C463.703064,117.978920 457.299072,122.574730 448.204987,122.544220 
	C438.928772,122.513100 431.858398,117.238846 430.432098,108.242882 
	C429.723083,103.771164 429.934387,98.856995 431.013763,94.458160 
	C433.486084,84.382820 442.655396,79.688942 453.753113,82.077484 
	C462.125793,83.879524 468.068939,93.369614 466.464996,102.564529 
	C466.336853,103.299088 465.329193,103.880249 464.293335,104.548080 
M446.712769,97.621376 
	C449.467438,97.621376 452.222107,97.621376 454.997986,97.621376 
	C454.718842,91.999039 452.603455,89.514771 448.581329,89.468536 
	C444.486908,89.421486 442.136353,91.973312 441.475311,97.420563 
	C442.929535,97.487747 444.374756,97.554527 446.712769,97.621376 
z"/>
<path fill="#F70D4B" opacity="1.000000" stroke="none" 
	d="
M398.360291,97.597549 
	C398.431061,99.971817 398.431061,101.937820 398.431061,104.461311 
	C389.891571,104.461311 381.655762,104.461311 373.250610,104.461311 
	C372.932587,108.714340 374.373993,111.486313 377.670929,113.052231 
	C380.849030,114.561707 383.343842,113.181770 386.351746,111.518639 
	C389.508240,109.773346 393.704224,109.908089 397.830078,109.150688 
	C395.739563,117.950745 389.228210,122.577049 380.170410,122.532921 
	C370.751160,122.487022 363.829987,116.966957 362.300323,107.688446 
	C361.715240,104.139542 361.760651,100.327988 362.350952,96.774368 
	C363.987366,86.923447 370.990265,81.371796 380.896454,81.531624 
	C390.869415,81.692528 396.452759,86.718773 398.360291,97.597549 
M373.689667,97.298409 
	C378.211548,97.298409 382.733459,97.298409 387.302582,97.298409 
	C387.223267,92.580849 385.287842,89.946609 381.183441,89.625473 
	C376.333649,89.246002 373.973358,92.124023 373.689667,97.298409 
z"/>
<path fill="#F70D4C" opacity="1.000000" stroke="none" 
	d="
M562.511658,96.816696 
	C566.118652,84.153328 577.426941,78.362465 589.052124,82.872025 
	C599.376099,86.876831 603.885437,100.820518 598.535583,112.196297 
	C593.962280,121.920715 580.885681,125.750488 571.133972,119.871964 
	C562.528748,114.684547 561.178650,106.371399 562.511658,96.816696 
M588.928345,107.127235 
	C588.949646,103.839813 589.284180,100.516548 588.913086,97.274025 
	C588.446655,93.198860 585.838928,90.559906 581.699524,90.313919 
	C577.502136,90.064484 574.673157,92.491287 573.968994,96.537392 
	C573.414673,99.722679 573.360474,103.098007 573.730225,106.314674 
	C574.179443,110.223282 576.397400,113.231224 580.584900,113.739662 
	C584.882935,114.261528 587.290955,111.627678 588.928345,107.127235 
z"/>
<path fill="#F70D4C" opacity="1.000000" stroke="none" 
	d="
M542.628540,121.891357 
	C526.471863,123.791222 517.288025,115.495758 518.150757,100.208488 
	C518.775818,89.132515 525.828247,82.193352 537.040894,81.621780 
	C547.245605,81.101593 554.536499,87.151405 556.447510,97.724876 
	C558.502441,109.094711 553.583435,117.923027 542.628540,121.891357 
M529.167053,103.244705 
	C530.627808,111.050819 533.702148,114.506493 538.533569,113.772957 
	C543.340027,113.043205 546.233948,107.707970 545.631470,100.687271 
	C545.052246,93.937050 542.468567,90.462730 537.848999,90.221909 
	C533.221863,89.980698 530.313232,93.260262 529.279907,99.933975 
	C529.153931,100.747322 529.191406,101.585983 529.167053,103.244705 
z"/>
<path fill="#F70F4E" opacity="1.000000" stroke="none" 
	d="
M418.859924,95.128738 
	C418.860138,99.598274 418.991882,103.590691 418.824860,107.570564 
	C418.651367,111.703979 419.427673,114.736076 424.871368,113.665901 
	C424.871368,116.438622 424.871368,118.824715 424.871368,121.874237 
	C421.395386,121.874237 418.068665,122.278992 414.884735,121.777351 
	C410.352692,121.063301 408.058838,117.863693 407.994110,113.327400 
	C407.890259,106.048561 407.966278,98.767159 407.966278,91.239113 
	C405.874542,91.016907 404.279999,90.847519 402.250702,90.631950 
	C402.250702,88.158813 402.250702,85.622887 402.250702,82.824745 
	C403.879242,82.578285 405.629150,82.313461 407.733673,81.994965 
	C407.733673,78.780212 407.733673,75.675919 407.733673,72.280457 
	C411.503021,72.280457 414.897217,72.280457 418.842590,72.280457 
	C418.842590,75.604622 418.842590,78.836380 418.842590,82.180870 
	C421.501556,82.348068 423.624146,82.481544 426.154785,82.640671 
	C426.154785,85.273605 426.154785,87.799438 426.154785,90.186317 
	C423.985809,92.340324 418.162231,88.064018 418.859924,95.128738 
z"/>
<path fill="#F70F4D" opacity="1.000000" stroke="none" 
	d="
M285.857544,99.028702 
	C285.858032,102.009544 286.048950,104.519173 285.818298,106.989426 
	C285.395538,111.516006 286.437775,114.635033 291.951752,113.958763 
	C291.951752,116.621979 291.951752,118.888466 291.951752,121.797310 
	C288.311615,121.797310 284.807617,122.269783 281.491333,121.682465 
	C276.938568,120.876160 274.988831,117.387085 274.942902,112.930374 
	C274.869629,105.811562 274.923309,98.691452 274.923309,91.249992 
	C272.808929,90.999435 271.080658,90.794632 269.102386,90.560204 
	C269.102386,87.999092 269.102386,85.577484 269.102386,82.863487 
	C270.822876,82.594101 272.561462,82.321877 274.663910,81.992683 
	C274.663910,78.844360 274.663910,75.739708 274.663910,72.309700 
	C278.430267,72.309700 281.827606,72.309700 285.786285,72.309700 
	C285.786285,75.529366 285.786285,78.757652 285.786285,82.161652 
	C288.442200,82.333199 290.558441,82.469887 293.120605,82.635376 
	C293.120605,85.201569 293.120605,87.724472 293.120605,90.599159 
	C290.882141,90.752602 288.640717,90.906242 285.857788,91.097008 
	C285.857788,93.654137 285.857788,96.096939 285.857544,99.028702 
z"/>
<path fill="#F70D4C" opacity="1.000000" stroke="none" 
	d="
M343.824890,107.991104 
	C343.824860,94.090782 343.824860,80.688293 343.824860,67.058929 
	C347.585724,67.058929 350.851196,67.058929 354.485901,67.058929 
	C354.485901,84.936943 354.485901,102.785858 354.485901,121.095375 
	C351.278931,121.095375 347.920227,121.095375 343.824890,121.095375 
	C343.824890,116.970512 343.824890,112.729729 343.824890,107.991104 
z"/>
<path fill="#F9F5F6" opacity="1.000000" stroke="none" 
	d="
M82.894363,132.951782 
	C78.898796,144.701706 78.898796,144.701691 66.575584,144.701553 
	C62.426472,144.701508 58.277355,144.701538 53.281429,144.701538 
	C54.661594,140.368607 55.825989,136.496353 57.124718,132.669693 
	C68.767441,98.364601 80.492699,64.087273 92.006134,29.738918 
	C93.215950,26.129675 94.802452,24.845858 98.641273,25.004704 
	C106.624687,25.335047 114.632690,25.189297 122.627518,25.055490 
	C125.132988,25.013556 126.470314,25.664333 127.371002,28.215435 
	C140.814728,66.292923 154.372055,104.330292 167.884033,142.383713 
	C168.039307,142.821045 167.949768,143.345306 168.017914,144.677704 
	C159.542801,144.677704 151.152176,144.795273 142.774277,144.522324 
	C141.776382,144.489822 140.467285,142.473602 139.951080,141.128036 
	C137.273041,134.147247 134.948624,127.027725 132.142319,120.101868 
	C131.591141,118.741562 129.476166,117.163231 128.057404,117.138817 
	C114.909065,116.912659 101.755234,117.005196 88.298187,117.005196 
	C86.505157,122.259789 84.746887,127.412529 82.894363,132.951782 
M123.973457,90.620491 
	C119.125336,75.917801 114.277206,61.215107 109.103249,45.524258 
	C103.866837,62.790176 98.934601,79.053146 93.945900,95.502289 
	C104.586601,95.502289 114.677414,95.502289 125.213593,95.502289 
	C124.804176,93.889885 124.489883,92.652107 123.973457,90.620491 
z"/>
<path fill="#FEF6F8" opacity="1.000000" stroke="none" 
	d="
M249.468475,99.937744 
	C245.419174,100.107933 241.786316,100.107933 237.375580,100.107933 
	C238.433838,96.324066 239.346252,92.930878 240.335876,89.560349 
	C241.307495,86.251083 242.357544,82.964844 243.794983,78.299515 
	C246.050476,86.250488 247.967712,93.009018 249.468475,99.937744 
z"/>
<path fill="#FEE6EC" opacity="1.000000" stroke="none" 
	d="
M446.266357,97.621338 
	C444.374756,97.554527 442.929535,97.487747 441.475311,97.420563 
	C442.136353,91.973312 444.486908,89.421486 448.581329,89.468536 
	C452.603455,89.514771 454.718842,91.999039 454.997986,97.621376 
	C452.222107,97.621376 449.467438,97.621376 446.266357,97.621338 
z"/>
<path fill="#FEE8EE" opacity="1.000000" stroke="none" 
	d="
M373.475464,96.971642 
	C373.973358,92.124023 376.333649,89.246002 381.183441,89.625473 
	C385.287842,89.946609 387.223267,92.580849 387.302582,97.298409 
	C382.733459,97.298409 378.211548,97.298409 373.475464,96.971642 
z"/>
<path fill="#FEF7F9" opacity="1.000000" stroke="none" 
	d="
M588.821655,107.505371 
	C587.290955,111.627678 584.882935,114.261528 580.584900,113.739662 
	C576.397400,113.231224 574.179443,110.223282 573.730225,106.314674 
	C573.360474,103.098007 573.414673,99.722679 573.968994,96.537392 
	C574.673157,92.491287 577.502136,90.064484 581.699524,90.313919 
	C585.838928,90.559906 588.446655,93.198860 588.913086,97.274025 
	C589.284180,100.516548 588.949646,103.839813 588.821655,107.505371 
z"/>
<path fill="#FEF5F7" opacity="1.000000" stroke="none" 
	d="
M529.160095,102.828812 
	C529.191406,101.585983 529.153931,100.747322 529.279907,99.933975 
	C530.313232,93.260262 533.221863,89.980698 537.848999,90.221909 
	C542.468567,90.462730 545.052246,93.937050 545.631470,100.687271 
	C546.233948,107.707970 543.340027,113.043205 538.533569,113.772957 
	C533.702148,114.506493 530.627808,111.050819 529.160095,102.828812 
z"/>
<path fill="#ED4443" opacity="1.000000" stroke="none" 
	d="
M124.074524,91.017410 
	C124.489883,92.652107 124.804176,93.889885 125.213593,95.502289 
	C114.677414,95.502289 104.586601,95.502289 93.945900,95.502289 
	C98.934601,79.053146 103.866837,62.790176 109.103249,45.524258 
	C114.277206,61.215107 119.125336,75.917801 124.074524,91.017410 
z"/>
</svg>